#N canvas 210 38 1920 976 12;
#X obj 72 258 sel 1;
#X obj 73 111 int 1;
#X obj 73 84 bng 15 250 50 0 empty empty empty 17 7 0 10 #fcfcfc #000000
#000000;
#X obj 74 9 tgl 15 0 empty empty empty 17 7 0 10 #fcfcfc #000000 #000000
0 1;
#X floatatom 73 140 5 0 0 0 - - - 0;
#X obj 126 259 sel 2;
#X obj 184 258 sel 3;
#X obj 239 258 sel 4;
#X floatatom 73 226 5 0 0 0 - - - 0;
#X obj 72 290 bng 15 250 50 0 empty empty empty 17 7 0 10 #fcfcfc #000000
#000000;
#X obj 126 292 bng 15 250 50 0 empty empty empty 17 7 0 10 #fcfcfc
#000000 #000000;
#X obj 184 289 bng 15 250 50 0 empty empty empty 17 7 0 10 #fcfcfc
#000000 #000000;
#X obj 239 290 bng 15 250 50 0 empty empty empty 17 7 0 10 #fcfcfc
#000000 #000000;
#X msg 52 387 0;
#X msg 95 388 60;
#X msg 139 387 62;
#X msg 182 388 64;
#X msg 223 387 65;
#X msg 267 386 67;
#X msg 311 385 69;
#X msg 355 385 71;
#X text 97 358 c;
#X text 145 357 d;
#X text 189 357 e;
#X text 232 355 f;
#X text 355 356 b;
#X text 402 355 c;
#X msg 395 385 72;
#X obj 177 425 mtof;
#X floatatom 184 467 5 0 0 0 - - - 0;
#X floatatom 187 24 5 0 0 0 - - - 0;
#X obj 295 290 bng 15 250 50 0 empty empty empty 17 7 0 10 #fcfcfc
#000000 #000000;
#X obj 349 292 bng 15 250 50 0 empty empty empty 17 7 0 10 #fcfcfc
#000000 #000000;
#X obj 407 289 bng 15 250 50 0 empty empty empty 17 7 0 10 #fcfcfc
#000000 #000000;
#X obj 462 290 bng 15 250 50 0 empty empty empty 17 7 0 10 #fcfcfc
#000000 #000000;
#X obj 295 258 sel 5;
#X obj 349 259 sel 6;
#X obj 407 258 sel 7;
#X obj 462 258 sel 8;
#X obj 73 165 % 8;
#X text 271 359 g;
#X text 313 356 a;
#X floatatom 244 583 5 0 0 0 - - - 0;
#X obj 247 630 osc~;
#X floatatom 310 584 5 0 0 0 - - - 0;
#X obj 313 631 osc~;
#X floatatom 373 589 5 0 0 0 - - - 0;
#X obj 376 636 osc~;
#X floatatom 105 608 5 0 0 0 - - - 0;
#X obj 108 655 osc~;
#X obj 310 530 * 3;
#X obj 373 535 * 5;
#X obj 245 714 output~;
#X obj 174 551 osc~;
#X obj 106 554 / 2;
#X text 148 148 Modulo mathematical function;
#X text 202 114 sequence adds 1;
#X text 155 177 divides count by number of total steps remainder is
step count;
#X text 513 255 abbrevation of select object;
#X text 481 384 c major scale;
#X text 247 425 coverts midi note values to frequency;
#X text 457 590 additive synth;
#X text 326 11 operating instructions: turn output volume up toggle
metro on (adjust speed) to stop turn metro off and clck 0 message OR
output mute;
#X text 669 357 https://www.youtube.com/watch?v=FVYkQFP1_D4;
#X obj 688 452 noise~;
#X obj 711 564 *~ 0.5;
#X obj 730 605 dac~;
#X floatatom 781 457 5 0 0 0 - - - 0;
#X text 773 423 cut off frequency;
#X obj 689 501 bp~ 220 1;
#X text 769 502 band pass filter;
#X floatatom 860 453 5 0 0 0 - - - 0;
#X text 916 458 Q factor;
#X obj 73 195 + 1;
#X text 745 385 Subtractive filter;
#X text 986 17 ADSR Envelope;
#X obj 860 123 *~;
#X obj 1024 69 bng 15 250 50 0 empty empty empty 17 7 0 10 #fcfcfc
#000000 #000000;
#X obj 1004 181 vline~;
#X obj 845 192 output~;
#X text 925 128 attack 1 500;
#X text 1017 129 release 0 500;
#X text 1122 126 sustain 3000;
#X text 1065 181 deluxe line;
#X text 786 61 cosine oscillator;
#X text 1079 62 bang;
#X text 695 699 This has: 1.OSC 2 additive syth;
#X text 645 768 Need to add 1 subtractive filters(subtractive syth)
2 ADSR 3 LFO;
#X text 1214 377 LFO;
#X obj 1217 512 snapshot~;
#X text 1148 434 LFO;
#X text 896 520 converts to a integer;
#X floatatom 1224 571 5 0 1 0 - - - 0;
#X obj 1316 559 vsl 15 128 0.05 1 0 0 empty empty empty 0 -9 0 10 #faff00
#000000 #000000 0 1;
#X obj 1338 394 tgl 15 0 empty empty empty 17 7 0 10 #fcfcfc #000000
#000000 0 1;
#X obj 1341 353 loadbang;
#X obj 73 49 metro 200;
#X msg 1019 106 4 150 \, 0 10 100;
#X obj 853 84 osc~ 300;
#X obj 1336 429 metro 10;
#X obj 1197 436 osc~ 0.6;
#X obj 147 112 + 3;
#X text 1162 299 https://www.youtube.com/watch?v=WE1FdBOdDNs;
#X text 1092 7 https://www.youtube.com/watch?v=49a-IcuDlJE;
#X text 943 239 set to 66;
#X obj 1490 417 metro;
#X floatatom 1465 641 5 0 0 0 - - - 0;
#X text 1584 455 numbers go 0-3;
#X text 1739 379 speed of metro;
#X obj 1460 692 osc~;
#X obj 1489 613 line;
#X obj 1472 734 *~;
#X obj 1576 664 *;
#X obj 1591 617 / 2;
#X text 1353 770 number values which are divded by 4 and go to the
osc;
#X obj 1442 829 output~;
#X obj 1650 382 * 200;
#X text 1548 329 random sounds;
#X text 1543 302 https://www.youtube.com/watch?v=bgtTVVn6bf4;
#X obj 1488 453 random 3;
#X obj 1484 496 route 0 1;
#X obj 1650 352 random 3;
#X obj 1501 546 90;
#X obj 1457 544 70;
#X obj 1560 543 100;
#X connect 0 0 9 0;
#X connect 1 0 4 0;
#X connect 1 0 101 0;
#X connect 2 0 1 0;
#X connect 3 0 96 0;
#X connect 3 0 105 0;
#X connect 4 0 39 0;
#X connect 5 0 10 0;
#X connect 6 0 11 0;
#X connect 7 0 12 0;
#X connect 8 0 0 0;
#X connect 8 0 5 0;
#X connect 8 0 6 0;
#X connect 8 0 7 0;
#X connect 8 0 35 0;
#X connect 8 0 36 0;
#X connect 8 0 37 0;
#X connect 8 0 38 0;
#X connect 9 0 14 0;
#X connect 10 0 15 0;
#X connect 11 0 16 0;
#X connect 12 0 17 0;
#X connect 13 0 28 0;
#X connect 14 0 28 0;
#X connect 15 0 28 0;
#X connect 16 0 28 0;
#X connect 17 0 28 0;
#X connect 18 0 28 0;
#X connect 19 0 28 0;
#X connect 20 0 28 0;
#X connect 27 0 28 0;
#X connect 28 0 29 0;
#X connect 29 0 50 0;
#X connect 29 0 53 0;
#X connect 29 0 51 0;
#X connect 29 0 54 0;
#X connect 29 0 77 0;
#X connect 29 0 42 0;
#X connect 30 0 96 1;
#X connect 31 0 18 0;
#X connect 32 0 19 0;
#X connect 33 0 20 0;
#X connect 34 0 27 0;
#X connect 35 0 31 0;
#X connect 36 0 32 0;
#X connect 37 0 33 0;
#X connect 38 0 34 0;
#X connect 39 0 73 0;
#X connect 42 0 43 0;
#X connect 43 0 52 0;
#X connect 43 0 52 1;
#X connect 44 0 45 0;
#X connect 45 0 52 0;
#X connect 45 0 52 1;
#X connect 46 0 47 0;
#X connect 47 0 52 0;
#X connect 47 0 52 1;
#X connect 48 0 49 0;
#X connect 49 0 52 0;
#X connect 49 0 52 1;
#X connect 50 0 44 0;
#X connect 51 0 46 0;
#X connect 53 0 52 0;
#X connect 53 0 52 1;
#X connect 54 0 48 0;
#X connect 64 0 69 0;
#X connect 65 0 66 0;
#X connect 65 0 66 1;
#X connect 67 0 69 1;
#X connect 69 0 65 0;
#X connect 69 0 45 0;
#X connect 71 0 69 2;
#X connect 73 0 8 0;
#X connect 76 0 79 0;
#X connect 76 0 79 1;
#X connect 77 0 97 0;
#X connect 78 0 76 1;
#X connect 89 0 92 0;
#X connect 89 0 93 0;
#X connect 89 0 42 0;
#X connect 94 0 99 0;
#X connect 95 0 94 0;
#X connect 96 0 2 0;
#X connect 97 0 78 0;
#X connect 98 0 76 0;
#X connect 99 0 89 0;
#X connect 100 0 89 0;
#X connect 101 0 1 1;
#X connect 105 0 119 0;
#X connect 105 0 121 0;
#X connect 106 0 109 0;
#X connect 106 0 113 0;
#X connect 109 0 111 0;
#X connect 109 0 111 1;
#X connect 110 0 106 0;
#X connect 111 0 115 0;
#X connect 111 0 115 1;
#X connect 112 0 109 1;
#X connect 113 0 112 0;
#X connect 116 0 105 1;
#X connect 119 0 120 0;
#X connect 120 0 123 0;
#X connect 120 1 122 0;
#X connect 120 2 124 0;
#X connect 121 0 112 1;
#X connect 121 0 116 0;
#X connect 122 0 110 0;
#X connect 123 0 110 0;
#X connect 124 0 110 0;
